<?xml version="1.0" encoding="UTF-8" standalone="no"?>
<!-- Created with Inkscape (http://www.inkscape.org/) -->

<svg
   width="100mm"
   height="100mm"
   viewBox="0 0 100 100"
   version="1.1"
   id="svg1"
   xmlns="http://www.w3.org/2000/svg"
   xmlns:svg="http://www.w3.org/2000/svg">
  <defs
     id="defs1" />
  <g
     id="layer1">
    <path
       style="display:inline;fill:#000000;fill-opacity:1;stroke-width:4.865"
       d="m 5,29.480007 v 41.039986 a 7.6138362,7.6138362 59.527302 0 0 3.9162305,6.655691 L 46.08377,97.824316 a 8.0640121,8.0640121 0 0 0 7.83246,0 L 91.08377,77.175684 A 7.6138362,7.6138362 120.4727 0 0 95,70.519993 V 29.480007 A 7.6138362,7.6138362 59.527302 0 0 91.08377,22.824316 L 53.91623,2.1756836 a 8.0640121,8.0640121 0 0 0 -7.83246,0 L 8.9162305,22.824316 A 7.6138362,7.6138362 120.4727 0 0 5,29.480007 Z"
       id="path1"
       transform="matrix(0.9,0,0,0.9,5,5)" />
    <path
       id="path11"
       style="fill:#acff47;fill-opacity:1;stroke-width:0.264583"
       d="m 49.999532,12.418604 v 30.673054 a 1.9835599,1.9835599 59.872117 0 0 0.999458,1.722224 l 3.001296,1.714981 a 1.9835599,1.9835599 59.872117 0 1 0.999458,1.722223 v 3.455033 a 1.9835815,1.9835815 59.872388 0 0 0.999453,1.722233 l 26.900246,15.371504 a 1.4036486,1.4036486 149.87276 0 0 2.100051,-1.218692 l 4.55e-4,-35.16223 c 1.7e-5,-1.33581 -0.940254,-2.955829 -2.100115,-3.618484 C 72.632565,22.934524 62.367395,17.064646 52.099772,11.199526 c -1.159909,-0.662569 -2.10024,-0.116732 -2.10024,1.219078 z m -7.099691,1.63854 -20.762308,11.864667 a 1.3821201,1.3821201 89.999105 0 0 3.8e-5,2.40003 l 21.63842,12.364428 a 0.81800935,0.81800935 149.87206 0 0 1.223846,-0.710236 V 15.275794 a 1.4035958,1.4035958 30.127048 0 0 -2.099996,-1.21865 z m -27.899723,18.36179 v 35.16223 a 4.1678886,4.1678886 59.872668 0 0 2.100008,3.618725 l 30.799915,17.600275 a 1.4036119,1.4036119 149.87267 0 0 2.100008,-1.218671 l 0,-30.673054 a 1.9835602,1.9835602 59.872121 0 0 -0.999458,-1.722223 l -3.001296,-1.714982 a 1.9835602,1.9835602 59.872121 0 1 -0.999458,-1.722223 l 0,-3.455032 A 1.9835815,1.9835815 59.872388 0 0 44.000384,46.571746 L 17.100138,31.200242 a 1.4036277,1.4036277 149.87239 0 0 -2.10002,1.218692 z m 39.999626,27.605131 v 24.700238 a 1.4036356,1.4036356 30.127751 0 0 2.100026,1.218702 L 77.862535,74.078752 a 1.3820915,1.3820915 90.000001 0 0 0,-2.399992 L 56.223585,59.313837 a 0.81800305,0.81800305 149.87225 0 0 -1.223841,0.710228 z"
       transform="matrix(0.9,0,0,0.9,5,5)" />
  </g>
</svg>
